# xmcd
#
# Track frame offsets: 
#        150
#        26434
#        61989
#        90228
#        106875
#        125673
#        148921
#        160249
#        169776
#        192663
#        209645
#        233419
#        268141
#        290080
#
# Disc length: 4187 seconds
#
# Revision: 0
# Processed by: cddbd v1.5.2PL0 Copyright (c) Steve Scherf et al.
# Submitted via: ExactAudioCopyFreeDBPlugin 1.0
#
DISCID=d010590e
DTITLE=Robbie Lee Noll - Dear friend
DYEAR=2006
DGENRE=Blues
TTITLE0=Dear Friend
TTITLE1=Good Time Blues
TTITLE2=I'm An Easy Target
TTITLE3=Somebody's Got The  Blues Worse Than You
TTITLE4=You Don't Have To Go
TTITLE5=Ramblin' On My Mind
TTITLE6=Movin' On, I'm Out Of Here!
TTITLE7=Slide In Delta
TTITLE8=Further On Up The Road
TTITLE9=Fade My Blues
TTITLE10=Child Of Wild (To Be Continued)
TTITLE11=Trouble In Mind - Key To The Highway
TTITLE12=Take Me Back
TTITLE13=Jesus Loves Me
EXTD=
EXTT0=
EXTT1=
EXTT2=
EXTT3=
EXTT4=
EXTT5=
EXTT6=
EXTT7=
EXTT8=
EXTT9=
EXTT10=
EXTT11=
EXTT12=
EXTT13=
PLAYORDER=
